Raleway-Thin.ufo
<glyph name="six" format="1">
  <advance width="595"/>
  <unicode hex="0036"/>
  <outline>
    <contour>
      <point x="552" y="232" type="curve" smooth="yes"/>
      <point x="552" y="98"/>
      <point x="443" y="-10"/>
      <point x="306" y="-10" type="curve" smooth="yes"/>
      <point x="165" y="-10"/>
      <point x="56" y="95"/>
      <point x="56" y="266" type="curve" smooth="yes"/>
      <point x="56" y="577"/>
      <point x="160" y="715"/>
      <point x="308" y="715" type="curve" smooth="yes"/>
      <point x="405" y="715"/>
      <point x="485" y="658"/>
      <point x="514" y="568" type="curve"/>
      <point x="495" y="561" type="line"/>
      <point x="470" y="641"/>
      <point x="395" y="695"/>
      <point x="309" y="695" type="curve" smooth="yes"/>
      <point x="171" y="695"/>
      <point x="78" y="554"/>
      <point x="78" y="308" type="curve"/>
      <point x="109" y="407"/>
      <point x="204" y="475"/>
      <point x="310" y="475" type="curve" smooth="yes"/>
      <point x="444" y="475"/>
      <point x="552" y="366"/>
    </contour>
    <contour>
      <point x="308" y="10" type="curve" smooth="yes"/>
      <point x="431" y="10"/>
      <point x="532" y="110"/>
      <point x="532" y="231" type="curve" smooth="yes"/>
      <point x="532" y="353"/>
      <point x="429" y="455"/>
      <point x="307" y="455" type="curve" smooth="yes"/>
      <point x="184" y="455"/>
      <point x="82" y="353"/>
      <point x="82" y="232" type="curve" smooth="yes"/>
      <point x="82" y="111"/>
      <point x="185" y="10"/>
    </contour>
  </outline>
</glyph>
<glyph name="V" format="1">
  <advance width="678"/>
  <unicode hex="0056"/>
  <outline>
    <contour>
      <point x="19" y="710" type="line"/>
      <point x="328" y="0" type="line"/>
      <point x="350" y="0" type="line"/>
      <point x="659" y="710" type="line"/>
      <point x="637" y="710" type="line"/>
      <point x="339" y="25" type="line"/>
      <point x="40" y="710" type="line"/>
    </contour>
  </outline>
</glyph>
<glyph name="X" format="1">
  <advance width="621"/>
  <unicode hex="0058"/>
  <outline>
    <contour>
      <point x="11" y="710" type="line"/>
      <point x="298" y="350" type="line"/>
      <point x="19" y="0" type="line"/>
      <point x="45" y="0" type="line"/>
      <point x="311" y="334" type="line"/>
      <point x="577" y="0" type="line"/>
      <point x="602" y="0" type="line"/>
      <point x="323" y="350" type="line"/>
      <point x="610" y="710" type="line"/>
      <point x="585" y="710" type="line"/>
      <point x="311" y="366" type="line"/>
      <point x="37" y="710" type="line"/>
    </contour>
  </outline>
</glyph>
<glyph name="Z" format="1">
  <advance width="624"/>
  <unicode hex="005A"/>
  <outline>
    <contour>
      <point x="330" y="707" type="move" name="top"/>
    </contour>
    <contour>
      <point x="28" y="0" type="line"/>
      <point x="591" y="0" type="line"/>
      <point x="591" y="20" type="line"/>
      <point x="53" y="20" type="line"/>
      <point x="595" y="690" type="line"/>
      <point x="595" y="710" type="line"/>
      <point x="33" y="710" type="line"/>
      <point x="33" y="690" type="line"/>
      <point x="570" y="690" type="line"/>
      <point x="28" y="20" type="line"/>
    </contour>
  </outline>
</glyph>
<glyph name="k" format="1">
  <advance width="508"/>
  <unicode hex="006B"/>
  <outline>
    <contour>
      <point x="265" y="0" type="move" name="bottom"/>
    </contour>
    <contour>
      <point x="490" y="0" type="line"/>
      <point x="260" y="311" type="line"/>
      <point x="485" y="517" type="line"/>
      <point x="458" y="517" type="line"/>
      <point x="104" y="196" type="line"/>
      <point x="104" y="730" type="line"/>
      <point x="84" y="730" type="line"/>
      <point x="84" y="0" type="line"/>
      <point x="104" y="0" type="line"/>
      <point x="104" y="169" type="line"/>
      <point x="245" y="297" type="line"/>
      <point x="466" y="0" type="line"/>
    </contour>
  </outline>
</glyph>
<glyph name="r" format="1">
  <advance width="323"/>
  <unicode hex="0072"/>
  <outline>
    <contour>
      <point x="176" y="519" type="move" name="top"/>
    </contour>
    <contour>
      <point x="94" y="0" type="move" name="bottom"/>
    </contour>
    <contour>
      <point x="306" y="519" type="line"/>
      <point x="298" y="519"/>
      <point x="286" y="518"/>
      <point x="273" y="517" type="curve" smooth="yes"/>
      <point x="205" y="509"/>
      <point x="140" y="458"/>
      <point x="104" y="385" type="curve"/>
      <point x="104" y="519" type="line"/>
      <point x="84" y="519" type="line"/>
      <point x="84" y="0" type="line"/>
      <point x="104" y="0" type="line"/>
      <point x="104" y="328" type="line"/>
      <point x="132" y="431"/>
      <point x="208" y="495"/>
      <point x="306" y="499" type="curve"/>
    </contour>
  </outline>
</glyph>
<glyph name="v" format="1">
  <advance width="520"/>
  <unicode hex="0076"/>
  <outline>
    <contour>
      <point x="269" y="0" type="line"/>
      <point x="495" y="519" type="line"/>
      <point x="473" y="519" type="line"/>
      <point x="260" y="29" type="line"/>
      <point x="47" y="519" type="line"/>
      <point x="25" y="519" type="line"/>
      <point x="251" y="0" type="line"/>
    </contour>
  </outline>
</glyph>
<glyph name="dcroat" format="1">
  <advance width="604"/>
  <unicode hex="0111"/>
  <outline>
    <contour>
      <point x="595" y="633" type="line"/>
      <point x="595" y="653" type="line"/>
      <point x="375" y="653" type="line"/>
      <point x="375" y="633" type="line"/>
    </contour>
    <component base="d"/>
  </outline>
</glyph>
<glyph name="schwa" format="1">
  <advance width="576"/>
  <unicode hex="0259"/>
  <outline>
    <contour>
      <point x="281" y="519" type="move" name="top"/>
    </contour>
    <contour>
      <point x="285" y="0" type="move" name="bottom"/>
    </contour>
    <contour>
      <point x="285" y="-10" type="curve" smooth="yes"/>
      <point x="421" y="-10"/>
      <point x="530" y="108"/>
      <point x="530" y="254" type="curve" smooth="yes"/>
      <point x="530" y="403"/>
      <point x="417" y="527"/>
      <point x="280" y="527" type="curve" smooth="yes"/>
      <point x="190" y="527"/>
      <point x="102" y="474"/>
      <point x="74" y="403" type="curve"/>
      <point x="93" y="398" type="line"/>
      <point x="122" y="462"/>
      <point x="199" y="507"/>
      <point x="279" y="507" type="curve" smooth="yes"/>
      <point x="400" y="507"/>
      <point x="500" y="403"/>
      <point x="510" y="269" type="curve"/>
      <point x="35" y="269" type="line"/>
      <point x="35" y="258" type="line"/>
      <point x="36" y="109"/>
      <point x="147" y="-10"/>
    </contour>
    <contour>
      <point x="284" y="10" type="curve" smooth="yes"/>
      <point x="161" y="10"/>
      <point x="65" y="110"/>
      <point x="56" y="249" type="curve"/>
      <point x="510" y="249" type="line"/>
      <point x="503" y="112"/>
      <point x="407" y="10"/>
    </contour>
  </outline>
</glyph>
<glyph name="uni03A9" format="1">
  <advance width="770"/>
  <unicode hex="03A9"/>
  <outline>
    <contour>
      <point x="49" y="0" type="line"/>
      <point x="338" y="0" type="line"/>
      <point x="338" y="21" type="line"/>
      <point x="166" y="55"/>
      <point x="75" y="221"/>
      <point x="75" y="365" type="curve" smooth="yes"/>
      <point x="75" y="528"/>
      <point x="193" y="693"/>
      <point x="385" y="693" type="curve" smooth="yes"/>
      <point x="577" y="693"/>
      <point x="695" y="528"/>
      <point x="695" y="365" type="curve" smooth="yes"/>
      <point x="695" y="221"/>
      <point x="604" y="55"/>
      <point x="432" y="21" type="curve"/>
      <point x="432" y="0" type="line"/>
      <point x="721" y="0" type="line"/>
      <point x="721" y="21" type="line"/>
      <point x="502" y="21" type="line"/>
      <point x="636" y="81"/>
      <point x="716" y="218"/>
      <point x="716" y="365" type="curve" smooth="yes"/>
      <point x="716" y="549"/>
      <point x="576" y="715"/>
      <point x="385" y="715" type="curve" smooth="yes"/>
      <point x="194" y="715"/>
      <point x="54" y="549"/>
      <point x="54" y="365" type="curve" smooth="yes"/>
      <point x="54" y="218"/>
      <point x="134" y="81"/>
      <point x="268" y="21" type="curve"/>
      <point x="49" y="21" type="line"/>
    </contour>
  </outline>
</glyph>
<glyph name="uni042C" format="1">
  <advance width="576"/>
  <unicode hex="042C"/>
  <outline>
    <contour>
      <point x="119" y="0" type="line"/>
      <point x="119" y="710" type="line"/>
      <point x="99" y="710" type="line"/>
      <point x="99" y="0" type="line"/>
    </contour>
    <contour>
      <point x="109" y="0" type="line"/>
      <point x="327" y="0" type="line" smooth="yes"/>
      <point x="474" y="0"/>
      <point x="544" y="99"/>
      <point x="544" y="209" type="curve" smooth="yes"/>
      <point x="544" y="330"/>
      <point x="476" y="418"/>
      <point x="324" y="418" type="curve" smooth="yes"/>
      <point x="109" y="418" type="line"/>
    </contour>
    <contour>
      <point x="119" y="398" type="line"/>
      <point x="324" y="398" type="line" smooth="yes"/>
      <point x="481" y="398"/>
      <point x="524" y="307"/>
      <point x="524" y="209" type="curve" smooth="yes"/>
      <point x="524" y="114"/>
      <point x="469" y="20"/>
      <point x="327" y="20" type="curve" smooth="yes"/>
      <point x="119" y="20" type="line"/>
    </contour>
  </outline>
</glyph>
<glyph name="uni044D" format="1">
  <advance width="540"/>
  <unicode hex="044D"/>
  <outline>
    <contour>
      <point x="247" y="-9" type="curve" smooth="yes"/>
      <point x="392" y="-9"/>
      <point x="494" y="129"/>
      <point x="494" y="263" type="curve" smooth="yes"/>
      <point x="494" y="390"/>
      <point x="403" y="527"/>
      <point x="243" y="527" type="curve" smooth="yes"/>
      <point x="148" y="527"/>
      <point x="82" y="479"/>
      <point x="49" y="411" type="curve"/>
      <point x="67" y="404" type="line"/>
      <point x="108" y="480"/>
      <point x="180" y="507"/>
      <point x="246" y="507" type="curve" smooth="yes"/>
      <point x="386" y="507"/>
      <point x="467" y="390"/>
      <point x="473" y="275" type="curve"/>
      <point x="189" y="275" type="line"/>
      <point x="189" y="256" type="line"/>
      <point x="474" y="256" type="line"/>
      <point x="471" y="126"/>
      <point x="371" y="10"/>
      <point x="244" y="10" type="curve" smooth="yes"/>
      <point x="175" y="10"/>
      <point x="95" y="44"/>
      <point x="55" y="120" type="curve"/>
      <point x="37" y="113" type="line"/>
      <point x="73" y="34"/>
      <point x="165" y="-9"/>
    </contour>
  </outline>
</glyph>
<glyph name="uni044F" format="1">
  <advance width="487"/>
  <unicode hex="044F"/>
  <outline>
    <contour>
      <point x="383" y="0" type="line"/>
      <point x="403" y="0" type="line"/>
      <point x="403" y="519" type="line"/>
      <point x="240" y="519" type="line" smooth="yes"/>
      <point x="140" y="519"/>
      <point x="79" y="451"/>
      <point x="79" y="372" type="curve" smooth="yes"/>
      <point x="79" y="274"/>
      <point x="142" y="219"/>
      <point x="223" y="219" type="curve" smooth="yes"/>
      <point x="228" y="219" type="line"/>
      <point x="231" y="218" type="line"/>
      <point x="383" y="218" type="line"/>
    </contour>
    <contour>
      <point x="223" y="237" type="line" smooth="yes"/>
      <point x="139" y="237"/>
      <point x="100" y="299"/>
      <point x="100" y="372" type="curve" smooth="yes"/>
      <point x="100" y="445"/>
      <point x="155" y="500"/>
      <point x="240" y="500" type="curve" smooth="yes"/>
      <point x="383" y="500" type="line"/>
      <point x="383" y="237" type="line"/>
    </contour>
    <contour>
      <point x="38" y="0" type="line"/>
      <point x="63" y="0" type="line"/>
      <point x="245" y="232" type="line"/>
      <point x="220" y="232" type="line"/>
    </contour>
  </outline>
</glyph>
<glyph name="uni20A6" format="1">
  <advance width="816"/>
  <unicode hex="20A6"/>
  <outline>
    <contour>
      <point x="778" y="306" type="line"/>
      <point x="38" y="306" type="line"/>
      <point x="38" y="286" type="line"/>
      <point x="778" y="286" type="line"/>
    </contour>
    <contour>
      <point x="778" y="396" type="line"/>
      <point x="38" y="396" type="line"/>
      <point x="38" y="376" type="line"/>
      <point x="778" y="376" type="line"/>
    </contour>
    <component base="N" xOffset="20"/>
  </outline>
</glyph>
<glyph name="Euro" format="1">
  <advance width="817"/>
  <unicode hex="20AC"/>
  <outline>
    <contour>
      <point x="516" y="291" type="line"/>
      <point x="526" y="311" type="line"/>
      <point x="43" y="311" type="line"/>
      <point x="33" y="291" type="line"/>
    </contour>
    <contour>
      <point x="83" y="401" type="line"/>
      <point x="73" y="381" type="line"/>
      <point x="556" y="381" type="line"/>
      <point x="566" y="401" type="line"/>
    </contour>
    <component base="C" xOffset="101"/>
  </outline>
</glyph>
<glyph name="uni2113" format="1">
  <advance width="262"/>
  <unicode hex="2113"/>
  <outline>
    <contour>
      <point x="87" y="314" type="line"/>
      <point x="153" y="380"/>
      <point x="214" y="522"/>
      <point x="214" y="604" type="curve" smooth="yes"/>
      <point x="214" y="678"/>
      <point x="195" y="720"/>
      <point x="160" y="720" type="curve" smooth="yes"/>
      <point x="126" y="720"/>
      <point x="102" y="675"/>
      <point x="102" y="610" type="curve" smooth="yes"/>
      <point x="102" y="76" type="line" smooth="yes"/>
      <point x="102" y="37"/>
      <point x="128" y="13"/>
      <point x="169" y="13" type="curve" smooth="yes"/>
      <point x="186" y="13"/>
      <point x="208" y="20"/>
      <point x="228" y="28" type="curve"/>
      <point x="235" y="12" type="line"/>
      <point x="212" y="2"/>
      <point x="187" y="-5"/>
      <point x="163" y="-5" type="curve" smooth="yes"/>
      <point x="112" y="-5"/>
      <point x="82" y="25"/>
      <point x="82" y="87" type="curve" smooth="yes"/>
      <point x="82" y="610" type="line" smooth="yes"/>
      <point x="82" y="684"/>
      <point x="115" y="740"/>
      <point x="159" y="740" type="curve" smooth="yes"/>
      <point x="204" y="740"/>
      <point x="235" y="687"/>
      <point x="235" y="610" type="curve" smooth="yes"/>
      <point x="235" y="501"/>
      <point x="164" y="363"/>
      <point x="88" y="289" type="curve"/>
    </contour>
  </outline>
</glyph>
<glyph name="lozenge" format="1">
  <advance width="466"/>
  <unicode hex="25CA"/>
  <outline>
    <contour>
      <point x="221" y="730" type="line"/>
      <point x="35" y="366" type="line"/>
      <point x="221" y="0" type="line"/>
      <point x="245" y="0" type="line"/>
      <point x="431" y="366" type="line"/>
      <point x="245" y="730" type="line"/>
    </contour>
    <contour>
      <point x="237" y="25" type="line"/>
      <point x="63" y="375" type="line"/>
      <point x="228" y="710" type="line"/>
      <point x="403" y="354" type="line"/>
    </contour>
  </outline>
</glyph>
<glyph name="L.sc" format="1">
  <advance width="502"/>
  <outline>
    <contour>
      <point x="335" y="707" type="move" name="top"/>
    </contour>
    <contour>
      <point x="335" y="0" type="move" name="bottom"/>
    </contour>
    <contour>
      <point x="478" y="0" type="line"/>
      <point x="478" y="19" type="line"/>
      <point x="115" y="19" type="line"/>
      <point x="115" y="540" type="line"/>
      <point x="95" y="540" type="line"/>
      <point x="95" y="0" type="line"/>
    </contour>
  </outline>
</glyph>
<glyph name="M.sc" format="1">
  <advance width="753"/>
  <outline>
    <contour>
      <point x="658" y="0" type="line"/>
      <point x="658" y="540" type="line"/>
      <point x="641" y="540" type="line"/>
      <point x="377" y="131" type="line"/>
      <point x="112" y="540" type="line"/>
      <point x="95" y="540" type="line"/>
      <point x="95" y="0" type="line"/>
      <point x="115" y="0" type="line"/>
      <point x="115" y="498" type="line"/>
      <point x="369" y="106" type="line"/>
      <point x="384" y="106" type="line"/>
      <point x="638" y="498" type="line"/>
      <point x="638" y="0" type="line"/>
    </contour>
  </outline>
</glyph>
<glyph name="N.sc" format="1">
  <advance width="665"/>
  <outline>
    <contour>
      <point x="397" y="707" type="move" name="top"/>
    </contour>
    <contour>
      <point x="398" y="0" type="move" name="bottom"/>
    </contour>
    <contour>
      <point x="548" y="0" type="line"/>
      <point x="570" y="0" type="line"/>
      <point x="570" y="539" type="line"/>
      <point x="550" y="539" type="line"/>
      <point x="550" y="31" type="line"/>
      <point x="110" y="540" type="line"/>
      <point x="95" y="540" type="line"/>
      <point x="95" y="0" type="line"/>
      <point x="115" y="0" type="line"/>
      <point x="115" y="501" type="line"/>
    </contour>
  </outline>
</glyph>
<glyph name="O.sc" format="1">
  <advance width="646"/>
  <outline>
    <contour>
      <point x="382" y="707" type="move" name="top"/>
    </contour>
    <contour>
      <point x="382" y="0" type="move" name="bottom"/>
    </contour>
    <contour>
      <point x="324" y="-4" type="curve" smooth="yes"/>
      <point x="477" y="-4"/>
      <point x="594" y="125"/>
      <point x="594" y="270" type="curve" smooth="yes"/>
      <point x="594" y="404"/>
      <point x="485" y="543"/>
      <point x="324" y="543" type="curve" smooth="yes"/>
      <point x="170" y="543"/>
      <point x="52" y="413"/>
      <point x="52" y="270" type="curve" smooth="yes"/>
      <point x="52" y="131"/>
      <point x="163" y="-4"/>
    </contour>
    <contour>
      <point x="72" y="270" type="curve" smooth="yes"/>
      <point x="72" y="395"/>
      <point x="174" y="524"/>
      <point x="324" y="524" type="curve" smooth="yes"/>
      <point x="466" y="524"/>
      <point x="574" y="402"/>
      <point x="574" y="270" type="curve" smooth="yes"/>
      <point x="574" y="145"/>
      <point x="474" y="16"/>
      <point x="324" y="16" type="curve" smooth="yes"/>
      <point x="178" y="16"/>
      <point x="72" y="138"/>
    </contour>
  </outline>
</glyph>
<glyph name="Z.sc" format="1">
  <advance width="541"/>
  <outline>
    <contour>
      <point x="334" y="707" type="move" name="top"/>
    </contour>
    <contour>
      <point x="38" y="0" type="line"/>
      <point x="500" y="0" type="line"/>
      <point x="500" y="19" type="line"/>
      <point x="63" y="19" type="line"/>
      <point x="503" y="521" type="line"/>
      <point x="503" y="540" type="line"/>
      <point x="42" y="540" type="line"/>
      <point x="42" y="520" type="line"/>
      <point x="478" y="520" type="line"/>
      <point x="38" y="19" type="line"/>
    </contour>
  </outline>
</glyph>
<glyph name="j.alt" format="1">
  <advance width="188"/>
  <outline>
    <contour>
      <point x="84" y="-213" type="line"/>
      <point x="104" y="-213" type="line"/>
      <point x="104" y="517" type="line"/>
      <point x="84" y="517" type="line"/>
    </contour>
    <contour>
      <point x="84" y="653" type="line"/>
      <point x="104" y="653" type="line"/>
      <point x="104" y="717" type="line"/>
      <point x="84" y="717" type="line"/>
    </contour>
  </outline>
</glyph>
